HIERARCHY
ROOT Hips
{
	OFFSET 0.000000 0.000000 0.000000 
	CHANNELS 6 Xposition Yposition Zposition Zrotation Yrotation Xrotation
	JOINT LeftUpLeg
	{
		OFFSET 1.363060 -1.794630 0.839290 
		CHANNELS 3 Zrotation Yrotation Xrotation
		JOINT LeftLeg
		{
			OFFSET 2.448110 -6.726130 0.000000 
			CHANNELS 3 Zrotation Yrotation Xrotation
			JOINT LeftFoot
			{
				OFFSET 2.562200 -7.039590 0.000000 
				CHANNELS 3 Zrotation Yrotation Xrotation
				JOINT LeftToeBase
				{
					OFFSET 0.157640 -0.433110 2.322550 
					CHANNELS 3 Zrotation Yrotation Xrotation
					End Site
					{
						OFFSET 0.000000 0.000000 0.000000 
					}
				}
			}
		}
	}
	JOINT RightUpLeg
	{
		OFFSET -1.305520 -1.794630 0.839290 
		CHANNELS 3 Zrotation Yrotation Xrotation
		JOINT RightLeg
		{
			OFFSET -2.542530 -6.985550 0.000000 
			CHANNELS 3 Zrotation Yrotation Xrotation
			JOINT RightFoot
			{
				OFFSET -2.568260 -7.056230 0.000000 
				CHANNELS 3 Zrotation Yrotation Xrotation
				JOINT RightToeBase
				{
					OFFSET -0.164730 -0.452590 2.363150 
					CHANNELS 3 Zrotation Yrotation Xrotation
					End Site
					{
						OFFSET 0.000000 0.000000 0.000000 
					}
				}
			}
		}
	}
	JOINT Spine
	{
		OFFSET 0.028270 2.035590 -0.193380 
		CHANNELS 3 Zrotation Yrotation Xrotation
		JOINT Spine1
		{
			OFFSET 0.056720 2.048850 -0.042750 
			CHANNELS 3 Zrotation Yrotation Xrotation
			JOINT Neck1
			{
				OFFSET -0.054170 1.746240 0.172020 
				CHANNELS 3 Zrotation Yrotation Xrotation
				JOINT Head
				{
					OFFSET 0.104070 1.761360 -0.123970 
					CHANNELS 3 Zrotation Yrotation Xrotation
					End Site
					{
						OFFSET 0.000000 0.000000 0.000000 
					}
				}
			}
			JOINT LeftArm
			{
				OFFSET 3.362410 1.200890 -0.311210 
				CHANNELS 3 Zrotation Yrotation Xrotation
				JOINT LeftForeArm
				{
					OFFSET 4.983000 -0.000000 -0.000000 
					CHANNELS 3 Zrotation Yrotation Xrotation
					JOINT LeftHand
					{
						OFFSET 3.483560 -0.000000 -0.000000 
						CHANNELS 3 Zrotation Yrotation Xrotation
						JOINT LeftHandIndex1
						{
							OFFSET 0.715260 -0.000000 -0.000000 
							CHANNELS 3 Zrotation Yrotation Xrotation
							End Site
							{
								OFFSET 0.000000 0.000000 0.000000 
							}
						}
					}
				}
			}
			JOINT RightArm
			{
				OFFSET -3.136600 1.374050 -0.404650 
				CHANNELS 3 Zrotation Yrotation Xrotation
				JOINT RightForeArm
				{
					OFFSET -5.241900 -0.000000 -0.000000 
					CHANNELS 3 Zrotation Yrotation Xrotation
					JOINT RightHand
					{
						OFFSET -3.444170 -0.000000 -0.000000 
						CHANNELS 3 Zrotation Yrotation Xrotation
						JOINT RightHandIndex1
						{
							OFFSET -0.622530 -0.000000 -0.000000 
							CHANNELS 3 Zrotation Yrotation Xrotation
							End Site
							{
								OFFSET 0.000000 0.000000 0.000000 
							}
						}
					}
				}
			}
		}
	}
}
MOTION
Frames: 15
Frame Time: 0.041667
7.109464 19.632261 -7.920555 2.159280 0.083407 -6.383886 -87.223890 -32.355270 5.961352 18.761756 3.278703 41.799877 -3.124803 -22.851992 -61.120818 0.357900 3.843200 10.636100 86.376719 19.446181 3.237776 -16.617643 -9.301254 62.678144 -3.581766 9.104405 -70.789211 -0.654800 5.176000 -14.411200 -5.477190 3.280004 88.095857 -3.078301 3.810481 -34.994440 -10.681004 -0.667001 35.702885 0.008200 -1.518000 5.443700 -97.267041 -2.851828 22.916268 57.873933 -63.681411 -10.871147 1.478426 1.271356 -8.881816 -7.125000 0.000000 0.000000 109.478860 -4.053144 14.471195 -48.136782 52.427872 -6.925515 -0.176702 -10.272440 3.300587 7.125000 0.000000 0.000000 
7.120703 19.626677 -7.888627 2.488711 0.046128 -5.330884 -86.731585 -33.213031 4.734018 18.394403 3.456010 42.738749 -3.684730 -23.840767 -60.810716 0.347700 3.788800 10.483200 85.892853 21.947588 1.178509 -16.732401 -9.435483 63.912919 -3.468547 8.620357 -70.432314 -0.589400 4.915500 -13.667700 -6.156661 3.707533 87.958231 -2.613696 4.005575 -35.012795 -11.652420 -0.418886 35.324713 -0.058300 -1.509800 5.431000 -97.423603 -2.841400 23.107397 57.512320 -63.534424 -10.827530 1.624517 1.281551 -8.741548 -7.125000 0.000000 0.000000 109.357057 -3.633464 14.836206 -47.595374 52.057718 -6.786543 -0.358109 -10.492169 3.394087 7.125000 0.000000 0.000000 
7.130511 19.627894 -7.855553 2.741859 0.159818 -4.463373 -86.062385 -33.969706 3.464219 17.946814 3.691879 43.980222 -4.481837 -25.066413 -60.208911 0.360200 3.855600 10.670800 85.386767 24.018072 -0.567087 -16.870010 -9.564290 64.841412 -3.392926 8.071807 -70.081266 -0.539200 4.705000 -13.069000 -6.626400 3.960154 87.868829 -2.180327 4.132517 -34.993125 -12.534924 -0.226686 34.729172 -0.118800 -1.507400 5.400800 -97.552054 -2.892032 23.463965 57.024759 -63.287716 -10.731813 1.774394 1.319399 -8.667967 -7.125000 0.000000 0.000000 109.257470 -3.227514 15.130378 -47.094885 51.742339 -6.672962 -0.545041 -10.717875 3.544946 7.125000 0.000000 0.000000 
7.138600 19.635124 -7.821191 2.858716 0.425910 -3.796964 -85.186232 -34.744936 2.091596 17.437452 4.014522 45.564428 -5.447322 -26.368049 -59.355593 0.379800 3.957800 10.958100 84.985327 25.532151 -1.857841 -17.032159 -9.661298 65.383018 -3.369406 7.477753 -69.752327 -0.490900 4.492600 -12.466800 -6.739218 3.948088 87.862309 -1.889838 4.151400 -34.941976 -13.196350 -0.121216 33.948723 -0.161500 -1.509100 5.354300 -97.637989 -3.027844 23.998194 56.439642 -62.947238 -10.571068 1.906196 1.343397 -8.649633 -7.125000 0.000000 0.000000 109.198337 -2.854362 15.321859 -46.656963 51.494476 -6.585499 -0.732579 -10.922690 3.745346 7.125000 0.000000 0.000000 
7.145473 19.647294 -7.785612 2.817728 0.828103 -3.263167 -84.041296 -35.739354 0.467239 16.875197 4.470729 47.544572 -6.505120 -27.600839 -58.301491 0.404500 4.083100 11.310700 84.752345 26.527902 -2.704930 -17.217302 -9.712297 65.549972 -3.391855 6.862422 -69.436847 -0.432700 4.221500 -11.700500 -6.507930 3.691538 87.933291 -1.781221 4.061822 -34.885315 -13.542815 -0.116621 33.080776 -0.178700 -1.514300 5.295200 -97.675033 -3.248080 24.700213 55.794330 -62.525110 -10.337993 1.985594 1.340401 -8.627621 -7.125000 0.000000 0.000000 109.193318 -2.541322 15.391322 -46.300002 51.320614 -6.525114 -0.907998 -11.097888 3.980715 7.125000 0.000000 0.000000 
7.151558 19.663187 -7.749173 2.576617 1.332549 -2.766737 -82.532665 -37.105974 -1.557117 16.277268 5.099016 49.946672 -7.603124 -28.678178 -57.089058 0.448900 4.298600 11.918200 84.696687 27.149859 -3.235841 -17.421036 -9.733580 65.413550 -3.459038 6.224721 -69.116926 -0.364000 3.875700 -10.727300 -5.871542 3.152277 88.065127 -1.884929 3.850863 -34.858372 -13.774142 -0.165828 32.281652 -0.189300 -1.533100 5.237100 -97.674965 -3.533878 25.516182 55.128893 -62.047599 -10.037150 1.985596 1.305376 -8.524170 -7.125000 0.000000 0.000000 109.223987 -2.307262 15.374189 -46.038332 51.223669 -6.493870 -1.062489 -11.240249 4.198428 7.125000 0.000000 0.000000 
7.157500 19.681513 -7.712234 2.128624 1.874736 -2.206380 -80.559459 -38.876542 -4.093701 15.675515 5.927529 52.738231 -8.709005 -29.568142 -55.740345 0.524500 4.641100 12.887700 84.767838 27.653315 -3.670168 -17.635480 -9.754093 65.097276 -3.567553 5.555391 -68.772966 -0.289300 3.458900 -9.559100 -4.874828 2.371152 88.234876 -2.203049 3.534214 -34.845772 -13.919823 -0.211154 31.455102 -0.184300 -1.536900 5.165900 -97.659698 -3.876862 26.372775 54.487770 -61.539947 -9.676573 1.889899 1.238862 -8.285853 -7.125000 0.000000 0.000000 109.276358 -2.158829 15.323224 -45.896242 51.203584 -6.494585 -1.185476 -11.343446 4.330669 7.125000 0.000000 0.000000 
7.164372 19.701343 -7.675223 1.522247 2.367877 -1.533111 -78.090876 -40.879107 -7.118683 15.124442 6.958151 55.809122 -9.812615 -30.287622 -54.235276 0.662200 5.204500 14.492800 84.887123 28.256759 -4.193271 -17.851727 -9.792817 64.721687 -3.701944 4.864684 -68.376913 -0.219400 3.015200 -8.321100 -3.749625 1.517767 88.381253 -2.645297 3.175346 -34.865214 -14.050378 -0.257373 30.759298 -0.180600 -1.543000 5.098200 -97.632805 -4.255453 27.223922 53.887001 -61.020946 -9.266766 1.690702 1.148598 -7.892762 -7.125000 0.000000 0.000000 109.331261 -2.092783 15.285898 -45.868212 51.262632 -6.527268 -1.259172 -11.428554 4.318393 7.125000 0.000000 0.000000 
7.172748 19.721889 -7.637711 0.806803 2.743582 -0.789591 -75.237391 -42.786885 -10.424534 14.707065 8.132957 58.996106 -10.898501 -30.849224 -52.546988 0.906100 6.065900 16.975900 85.007561 29.033859 -4.859322 -18.065055 -9.854241 64.344344 -3.851897 4.167931 -67.904499 -0.164100 2.609700 -7.194000 -2.631383 0.692424 88.490093 -3.162314 2.815095 -34.910173 -14.065846 -0.292164 30.208442 -0.167500 -1.534100 5.035500 -97.599195 -4.649928 28.018613 53.357542 -60.521121 -8.829005 1.387394 1.050033 -7.355808 -7.125000 0.000000 0.000000 109.367677 -2.086431 15.320686 -45.942577 51.393609 -6.591088 -1.271781 -11.520616 4.111773 7.125000 0.000000 0.000000 
7.182412 19.742578 -7.599125 0.033402 2.989007 -0.049565 -72.222976 -44.325455 -13.746789 14.491328 9.359027 62.161193 -11.927947 -31.247287 -50.689504 1.255800 7.104200 20.024400 85.123869 29.918553 -5.600349 -18.270861 -9.921599 63.949435 -4.007166 3.502865 -67.356579 -0.122200 2.253300 -6.206200 -1.593046 -0.063553 88.565725 -3.675287 2.479026 -34.958693 -14.001430 -0.346830 29.742365 -0.155000 -1.528700 4.977900 -97.569308 -5.027294 28.712350 52.926872 -60.059851 -8.381836 0.989016 0.944942 -6.706447 -7.125000 0.000000 0.000000 109.365953 -2.116647 15.462156 -46.103588 51.590282 -6.680377 -1.215125 -11.619501 3.709176 7.125000 0.000000 0.000000 
7.192649 19.763052 -7.559179 -0.766926 3.115897 0.602344 -69.314199 -45.346960 -16.826475 14.495254 10.536615 65.210127 -12.848464 -31.479519 -48.749918 1.652700 8.101900 23.023900 85.273252 30.755152 -6.277929 -18.463137 -9.969672 63.479861 -4.156870 2.928064 -66.744203 -0.090300 1.937600 -5.333300 -0.596134 -0.780811 88.625427 -4.174896 2.167437 -34.980513 -13.780817 -0.393188 29.271773 -0.128000 -1.501200 4.920200 -97.547123 -5.389529 29.295367 52.599969 -59.652982 -7.944349 0.525895 0.824234 -5.992708 -7.125000 0.000000 0.000000 109.325505 -2.160498 15.702616 -46.335797 51.841116 -6.787053 -1.092968 -11.704875 3.158273 7.125000 0.000000 0.000000 
7.202170 19.783025 -7.518159 -1.602225 3.140444 1.122267 -66.720523 -45.849095 -19.482013 14.679953 11.583323 68.067913 -13.610655 -31.559883 -46.883654 2.008400 8.883500 25.431600 85.504970 31.440723 -6.799506 -18.639275 -9.990222 62.892030 -4.304147 2.466408 -66.075363 -0.066600 1.664800 -4.580100 0.526463 -1.577504 88.669399 -4.709524 1.853629 -34.970754 -13.355393 -0.456279 28.875005 -0.084500 -1.463500 4.876700 -97.532330 -5.754757 29.792308 52.354697 -59.309761 -7.517612 -0.011130 0.702068 -5.265035 -7.125000 0.000000 0.000000 109.248465 -2.204221 16.006524 -46.616862 52.140384 -6.904205 -0.926603 -11.747896 2.542431 7.125000 0.000000 0.000000 
7.210188 19.802353 -7.476066 -2.436899 3.084467 1.488637 -64.627520 -45.893539 -21.567751 14.975361 12.453561 70.635126 -14.198478 -31.536259 -45.219558 2.274700 9.416300 27.106500 85.830245 31.905143 -7.113432 -18.795513 -9.970134 62.182385 -4.437671 2.148795 -65.373312 -0.048100 1.415200 -3.892100 1.784113 -2.462925 88.689243 -5.263629 1.543841 -34.918111 -12.660517 -0.542086 28.540511 -0.016200 -1.412800 4.848100 -97.526344 -6.132012 30.219967 52.164236 -59.028627 -7.113488 -0.591543 0.585103 -4.583707 -7.125000 0.000000 0.000000 109.150907 -2.239141 16.322306 -46.928282 52.478239 -7.024959 -0.742222 -11.722538 1.979709 7.125000 0.000000 0.000000 
7.216273 19.820895 -7.432683 -3.219773 2.966710 1.694101 -63.180656 -45.555962 -22.959842 15.305680 13.126291 72.792289 -14.628338 -31.471776 -43.843845 2.475200 9.792800 28.308200 86.240458 32.105463 -7.195979 -18.924334 -9.897444 61.368663 -4.531839 2.029124 -64.670630 -0.032200 1.159100 -3.186700 3.072752 -3.373043 88.669814 -5.751781 1.263741 -34.842085 -11.856777 -0.670951 28.323162 0.055200 -1.378700 4.840200 -97.519641 -6.483583 30.573263 52.031425 -58.820153 -6.760452 -1.176107 0.487708 -3.992360 -7.125000 0.000000 0.000000 109.043002 -2.265001 16.622409 -47.241699 52.835425 -7.139393 -0.571080 -11.611142 1.566648 7.125000 0.000000 0.000000 
7.219781 19.838362 -7.387869 -3.941936 2.796560 1.751037 -62.406007 -44.939472 -23.623259 15.588317 13.587838 74.429802 -14.931673 -31.444649 -42.855909 2.645100 10.097100 29.291700 86.738056 32.054120 -7.058051 -19.019648 -9.781251 60.469409 -4.581392 2.117687 -63.997348 -0.018100 0.869100 -2.388700 4.359226 -4.284701 88.618631 -6.178496 1.012701 -34.738366 -10.931392 -0.827029 28.051052 0.137000 -1.346300 4.829800 -97.493513 -6.778524 30.837214 51.987721 -58.698568 -6.488825 -1.713586 0.416092 -3.521188 -7.125000 0.000000 0.000000 108.944287 -2.285927 16.898377 -47.551614 53.189852 -7.242300 -0.429154 -11.411190 1.338211 7.125000 0.000000 0.000000 
